<svg width="32" height="32" viewBox="0 0 32 32" fill="none" xmlns="http://www.w3.org/2000/svg">
<rect width="32" height="32" rx="10" fill="#FFFF00"/>
<path d="M15 7.5H8C7.46957 7.5 6.96086 7.71071 6.58579 8.08579C6.21071 8.46086 6 8.96957 6 9.5V23.5C6 24.0304 6.21071 24.5391 6.58579 24.9142C6.96086 25.2893 7.46957 25.5 8 25.5H22C22.5304 25.5 23.0391 25.2893 23.4142 24.9142C23.7893 24.5391 24 24.0304 24 23.5V16.5" stroke="#292A2C" stroke-width="2" stroke-linecap="round" stroke-linejoin="round"/>
<path d="M22.5 6.00023C22.8978 5.6024 23.4374 5.37891 24 5.37891C24.5626 5.37891 25.1022 5.6024 25.5 6.00023C25.8978 6.39805 26.1213 6.93762 26.1213 7.50023C26.1213 8.06284 25.8978 8.6024 25.5 9.00023L16 18.5002L12 19.5002L13 15.5002L22.5 6.00023Z" stroke="#292A2C" stroke-width="2" stroke-linecap="round" stroke-linejoin="round"/>
</svg>
