<svg width="84" height="84" viewBox="0 0 84 84" fill="none" xmlns="http://www.w3.org/2000/svg">
<g clip-path="url(#clip0)">
<path d="M42 84C65.196 84 84 65.196 84 42C84 18.804 65.196 0 42 0C18.804 0 0 18.804 0 42C0 65.196 18.804 84 42 84Z" fill="#05F992"/>
<path d="M52.3463 15.0618C53.356 15.265 54.3849 15.4011 55.3723 15.6827C60.9584 17.2763 65.1597 22.3813 65.6911 28.1535C66.0669 32.2365 64.9494 35.8563 62.3517 39.0237C62.2768 39.1151 62.2057 39.2096 62.1111 39.3304C63.3071 40.9283 64.5016 42.5242 65.7427 44.1826C65.5548 44.2045 65.4335 44.2309 65.3122 44.2311C61.9558 44.2333 58.5992 44.2271 55.2427 44.2414C54.8861 44.2429 54.7638 44.1259 54.6597 43.7915C52.0567 35.4476 46.4673 30.4163 37.8875 28.7204C37.5082 28.6454 37.1207 28.6117 36.6086 28.5409C36.7951 27.5964 36.9182 26.6607 37.1676 25.7599C38.7763 19.9487 43.6652 15.8139 49.6679 15.1483C49.7828 15.1355 49.8939 15.0913 50.0067 15.0618C50.7865 15.0618 51.5664 15.0618 52.3463 15.0618Z" fill="#086972"/>
<path d="M16.7431 67.1475C18.2782 65.0975 19.7458 63.1375 21.1448 61.2695C20.3223 59.9893 19.4424 58.819 18.769 57.54C13.471 47.4766 18.9697 35.0284 29.9695 32.1141C40.3934 29.3523 50.7719 36.3116 52.2189 47.0336C53.4785 56.3671 47.0108 65.2324 37.7403 66.8429C36.6939 67.0247 35.6207 67.129 34.5593 67.1342C28.7632 67.1619 22.9668 67.1475 17.1706 67.1476C17.0696 67.1475 16.9687 67.1475 16.7431 67.1475ZM44.2489 50.9864C37.7686 50.9864 31.3358 50.9864 24.8701 50.9864C24.8601 51.1745 24.8444 51.3392 24.8439 51.504C24.8414 52.3818 24.8427 53.2597 24.8427 54.1614C31.3401 54.1614 37.7822 54.1614 44.249 54.1614C44.2489 53.0934 44.2489 52.0659 44.2489 50.9864ZM24.8719 47.6791C28.1058 47.6791 31.3102 47.6791 34.5226 47.6791C34.5226 46.6023 34.5226 45.56 34.5226 44.4996C31.2921 44.4996 28.0872 44.4996 24.8719 44.4996C24.8719 45.5758 24.8719 46.6179 24.8719 47.6791Z" fill="#086972"/>
</g>
<defs>
<clipPath id="clip0">
<rect width="84" height="84" fill="white"/>
</clipPath>
</defs>
</svg>
