<svg width="32" height="32" viewBox="0 0 32 32" fill="none" xmlns="http://www.w3.org/2000/svg">
<rect width="32" height="32" rx="10" fill="#FFFF00"/>
<g clip-path="url(#clip0_1590_424)">
<path d="M13 22.4999C8 23.9999 8 19.9999 6 19.4999M20 25.4999V21.6299C20.0375 21.1531 19.9731 20.6737 19.811 20.2237C19.6489 19.7737 19.3929 19.3634 19.06 19.0199C22.2 18.6699 25.5 17.4799 25.5 12.0199C25.4997 10.6238 24.9627 9.28114 24 8.26994C24.4559 7.04844 24.4236 5.69829 23.91 4.49994C23.91 4.49994 22.73 4.14994 20 5.97994C17.708 5.35876 15.292 5.35876 13 5.97994C10.27 4.14994 9.09 4.49994 9.09 4.49994C8.57638 5.69829 8.54414 7.04844 9 8.26994C8.03013 9.28864 7.49252 10.6434 7.5 12.0499C7.5 17.4699 10.8 18.6599 13.94 19.0499C13.611 19.3899 13.3573 19.7953 13.1953 20.2399C13.0334 20.6844 12.9668 21.158 13 21.6299V25.4999" stroke="#292A2C" stroke-width="2" stroke-linecap="round" stroke-linejoin="round"/>
</g>
<defs>
<clipPath id="clip0_1590_424">
<rect width="24" height="24" fill="white" transform="translate(4 3.5)"/>
</clipPath>
</defs>
</svg>
