<svg width="32" height="32" viewBox="0 0 32 32" fill="none" xmlns="http://www.w3.org/2000/svg">
<rect width="32" height="32" rx="10" fill="#FFFF00"/>
<path d="M21 5.5H11C8.23858 5.5 6 7.73858 6 10.5V20.5C6 23.2614 8.23858 25.5 11 25.5H21C23.7614 25.5 26 23.2614 26 20.5V10.5C26 7.73858 23.7614 5.5 21 5.5Z" stroke="#292A2C" stroke-width="2" stroke-linecap="round" stroke-linejoin="round"/>
<path d="M20 14.8698C20.1234 15.7021 19.9812 16.552 19.5937 17.2988C19.2062 18.0456 18.5931 18.6512 17.8416 19.0295C17.0901 19.4077 16.2384 19.5394 15.4077 19.4057C14.5771 19.2721 13.8097 18.8799 13.2148 18.285C12.6199 17.6901 12.2277 16.9227 12.094 16.092C11.9604 15.2614 12.092 14.4097 12.4703 13.6582C12.8485 12.9067 13.4541 12.2936 14.2009 11.9061C14.9477 11.5186 15.7977 11.3764 16.63 11.4998C17.4789 11.6257 18.2648 12.0213 18.8716 12.6281C19.4785 13.235 19.8741 14.0209 20 14.8698Z" stroke="#292A2C" stroke-width="2" stroke-linecap="round" stroke-linejoin="round"/>
<path d="M21.5 10H21.51" stroke="#292A2C" stroke-width="2" stroke-linecap="round" stroke-linejoin="round"/>
</svg>
