<svg width="27" height="30" viewBox="0 0 27 30" fill="none" xmlns="http://www.w3.org/2000/svg">
<path fill-rule="evenodd" clip-rule="evenodd" d="M0 0H2H2.82653H8.49634H9.19481H11.3229V29.6786H8.49634V17.0877H2.82653V29.6786H0V0ZM2.82653 14.2612H8.49634V2.82653H2.82653V14.2612ZM12.0105 29.7267C15.9491 29.8013 19.741 28.308 22.552 25.5753C25.3629 22.8426 26.9627 19.0944 26.9993 15.1552C27.036 11.216 25.5065 7.40851 22.7473 4.57035C19.9882 1.73219 16.2254 0.0958294 12.2868 0.0212536L12.2563 3.2952C15.3268 3.35334 18.2601 4.629 20.4111 6.84155C22.562 9.0541 23.7544 12.0223 23.7258 15.0932C23.6972 18.1641 22.4501 21.0861 20.2588 23.2164C18.0674 25.3467 15.1114 26.5109 12.0409 26.4528L12.0105 29.7267Z" fill="white"/>
</svg>
