<svg width="32" height="32" viewBox="0 0 32 32" fill="none" xmlns="http://www.w3.org/2000/svg">
<rect width="32" height="32" rx="10" fill="#FFFF00"/>
<path d="M27 6.4998C26.0424 7.17528 24.9821 7.69191 23.86 8.0298C23.2577 7.33731 22.4573 6.84649 21.567 6.62373C20.6767 6.40096 19.7395 6.457 18.8821 6.78426C18.0247 7.11151 17.2884 7.6942 16.773 8.45352C16.2575 9.21283 15.9877 10.1121 16 11.0298V12.0298C14.2426 12.0754 12.5013 11.6856 10.931 10.8952C9.36074 10.1049 8.01032 8.93844 7 7.4998C7 7.4998 3 16.4998 12 20.4998C9.94053 21.8978 7.48716 22.5987 5 22.4998C14 27.4998 25 22.4998 25 10.9998C24.9991 10.7213 24.9723 10.4434 24.92 10.1698C25.9406 9.1633 26.6608 7.89251 27 6.4998V6.4998Z" stroke="#292A2C" stroke-width="2" stroke-linecap="round" stroke-linejoin="round"/>
</svg>
